<svg id="visual" viewBox="0 0 1000 600" width="1000" height="600" xmlns="http://www.w3.org/2000/svg" xmlns:xlink="http://www.w3.org/1999/xlink" version="1.1"><rect x="0" y="0" width="1000" height="600" fill="#001a2f"></rect><defs><linearGradient id="grad1_0" x1="40%" y1="100%" x2="100%" y2="0%"><stop offset="16.666666666666664%" stop-color="#ffc100" stop-opacity="1"></stop><stop offset="83.33333333333334%" stop-color="#ffc100" stop-opacity="1"></stop></linearGradient></defs><defs><linearGradient id="grad1_1" x1="40%" y1="100%" x2="100%" y2="0%"><stop offset="16.666666666666664%" stop-color="#ffc100" stop-opacity="1"></stop><stop offset="83.33333333333334%" stop-color="#ff8f37" stop-opacity="1"></stop></linearGradient></defs><defs><linearGradient id="grad1_2" x1="40%" y1="100%" x2="100%" y2="0%"><stop offset="16.666666666666664%" stop-color="#f36457" stop-opacity="1"></stop><stop offset="83.33333333333334%" stop-color="#ff8f37" stop-opacity="1"></stop></linearGradient></defs><defs><linearGradient id="grad1_3" x1="40%" y1="100%" x2="100%" y2="0%"><stop offset="16.666666666666664%" stop-color="#f36457" stop-opacity="1"></stop><stop offset="83.33333333333334%" stop-color="#cc496c" stop-opacity="1"></stop></linearGradient></defs><defs><linearGradient id="grad1_4" x1="40%" y1="100%" x2="100%" y2="0%"><stop offset="16.666666666666664%" stop-color="#963d74" stop-opacity="1"></stop><stop offset="83.33333333333334%" stop-color="#cc496c" stop-opacity="1"></stop></linearGradient></defs><defs><linearGradient id="grad1_5" x1="40%" y1="100%" x2="100%" y2="0%"><stop offset="16.666666666666664%" stop-color="#963d74" stop-opacity="1"></stop><stop offset="83.33333333333334%" stop-color="#5c366b" stop-opacity="1"></stop></linearGradient></defs><defs><linearGradient id="grad1_6" x1="40%" y1="100%" x2="100%" y2="0%"><stop offset="16.666666666666664%" stop-color="#262b52" stop-opacity="1"></stop><stop offset="83.33333333333334%" stop-color="#5c366b" stop-opacity="1"></stop></linearGradient></defs><defs><linearGradient id="grad1_7" x1="40%" y1="100%" x2="100%" y2="0%"><stop offset="16.666666666666664%" stop-color="#262b52" stop-opacity="1"></stop><stop offset="83.33333333333334%" stop-color="#001a2f" stop-opacity="1"></stop></linearGradient></defs><defs><linearGradient id="grad2_0" x1="0%" y1="100%" x2="60%" y2="0%"><stop offset="16.666666666666664%" stop-color="#ffc100" stop-opacity="1"></stop><stop offset="83.33333333333334%" stop-color="#ffc100" stop-opacity="1"></stop></linearGradient></defs><defs><linearGradient id="grad2_1" x1="0%" y1="100%" x2="60%" y2="0%"><stop offset="16.666666666666664%" stop-color="#ff8f37" stop-opacity="1"></stop><stop offset="83.33333333333334%" stop-color="#ffc100" stop-opacity="1"></stop></linearGradient></defs><defs><linearGradient id="grad2_2" x1="0%" y1="100%" x2="60%" y2="0%"><stop offset="16.666666666666664%" stop-color="#ff8f37" stop-opacity="1"></stop><stop offset="83.33333333333334%" stop-color="#f36457" stop-opacity="1"></stop></linearGradient></defs><defs><linearGradient id="grad2_3" x1="0%" y1="100%" x2="60%" y2="0%"><stop offset="16.666666666666664%" stop-color="#cc496c" stop-opacity="1"></stop><stop offset="83.33333333333334%" stop-color="#f36457" stop-opacity="1"></stop></linearGradient></defs><defs><linearGradient id="grad2_4" x1="0%" y1="100%" x2="60%" y2="0%"><stop offset="16.666666666666664%" stop-color="#cc496c" stop-opacity="1"></stop><stop offset="83.33333333333334%" stop-color="#963d74" stop-opacity="1"></stop></linearGradient></defs><defs><linearGradient id="grad2_5" x1="0%" y1="100%" x2="60%" y2="0%"><stop offset="16.666666666666664%" stop-color="#5c366b" stop-opacity="1"></stop><stop offset="83.33333333333334%" stop-color="#963d74" stop-opacity="1"></stop></linearGradient></defs><defs><linearGradient id="grad2_6" x1="0%" y1="100%" x2="60%" y2="0%"><stop offset="16.666666666666664%" stop-color="#5c366b" stop-opacity="1"></stop><stop offset="83.33333333333334%" stop-color="#262b52" stop-opacity="1"></stop></linearGradient></defs><defs><linearGradient id="grad2_7" x1="0%" y1="100%" x2="60%" y2="0%"><stop offset="16.666666666666664%" stop-color="#001a2f" stop-opacity="1"></stop><stop offset="83.33333333333334%" stop-color="#262b52" stop-opacity="1"></stop></linearGradient></defs><g transform="translate(1000, 600)"><path d="M-466.5 0C-471.1 -54.3 -475.6 -108.6 -443.6 -144.1C-411.6 -179.7 -343 -196.6 -300.1 -218.1C-257.2 -239.5 -240 -265.6 -218.1 -300.1C-196.1 -334.7 -169.4 -377.9 -132.3 -407.1C-95.1 -436.2 -47.6 -451.3 0 -466.5L0 0Z" fill="#0f2341"></path><path d="M-408.2 0C-412.2 -47.5 -416.2 -95 -388.2 -126.1C-360.2 -157.3 -300.2 -172 -262.6 -190.8C-225.1 -209.6 -210 -232.4 -190.8 -262.6C-171.6 -292.9 -148.2 -330.7 -115.7 -356.2C-83.2 -381.7 -41.6 -394.9 0 -408.2L0 0Z" fill="#403160"></path><path d="M-349.9 0C-353.3 -40.7 -356.7 -81.4 -332.7 -108.1C-308.7 -134.8 -257.3 -147.5 -225.1 -163.6C-192.9 -179.6 -180 -199.2 -163.6 -225.1C-147.1 -251.1 -127 -283.4 -99.2 -305.3C-71.3 -327.2 -35.7 -338.5 0 -349.9L0 0Z" fill="#793a72"></path><path d="M-291.5 0C-294.4 -33.9 -297.3 -67.9 -277.3 -90.1C-257.3 -112.3 -214.4 -122.9 -187.6 -136.3C-160.8 -149.7 -150 -166 -136.3 -187.6C-122.6 -209.2 -105.9 -236.2 -82.7 -254.4C-59.5 -272.6 -29.7 -282.1 0 -291.5L0 0Z" fill="#b24272"></path><path d="M-233.2 0C-235.5 -27.1 -237.8 -54.3 -221.8 -72.1C-205.8 -89.9 -171.5 -98.3 -150.1 -109C-128.6 -119.8 -120 -132.8 -109 -150.1C-98.1 -167.4 -84.7 -189 -66.1 -203.5C-47.6 -218.1 -23.8 -225.7 0 -233.2L0 0Z" fill="#e25463"></path><path d="M-174.9 0C-176.6 -20.4 -178.4 -40.7 -166.4 -54.1C-154.4 -67.4 -128.6 -73.7 -112.6 -81.8C-96.5 -89.8 -90 -99.6 -81.8 -112.6C-73.5 -125.5 -63.5 -141.7 -49.6 -152.6C-35.7 -163.6 -17.8 -169.3 0 -174.9L0 0Z" fill="#ff7848"></path><path d="M-116.6 0C-117.8 -13.6 -118.9 -27.1 -110.9 -36C-102.9 -44.9 -85.8 -49.2 -75 -54.5C-64.3 -59.9 -60 -66.4 -54.5 -75C-49 -83.7 -42.3 -94.5 -33.1 -101.8C-23.8 -109.1 -11.9 -112.8 0 -116.6L0 0Z" fill="#ffa722"></path><path d="M-58.3 0C-58.9 -6.8 -59.5 -13.6 -55.5 -18C-51.5 -22.5 -42.9 -24.6 -37.5 -27.3C-32.2 -29.9 -30 -33.2 -27.3 -37.5C-24.5 -41.8 -21.2 -47.2 -16.5 -50.9C-11.9 -54.5 -5.9 -56.4 0 -58.3L0 0Z" fill="#ffc100"></path></g><g transform="translate(0, 0)"><path d="M466.5 0C422.7 38.3 378.9 76.7 358.5 116.5C338.2 156.3 341.3 197.7 330.9 240.4C320.5 283.1 296.6 327.1 263.9 363.2C231.2 399.4 189.6 427.7 144.1 443.6C98.7 459.5 49.3 463 0 466.5L0 0Z" fill="#0f2341"></path><path d="M408.2 0C369.9 33.5 331.5 67.1 313.7 101.9C295.9 136.8 298.6 173 289.5 210.4C280.4 247.7 259.6 286.2 230.9 317.8C202.3 349.5 165.9 374.3 126.1 388.2C86.4 402.1 43.2 405.1 0 408.2L0 0Z" fill="#403160"></path><path d="M349.9 0C317 28.7 284.2 57.5 268.9 87.4C253.6 117.3 256 148.3 248.2 180.3C240.4 212.3 222.5 245.3 197.9 272.4C173.4 299.6 142.2 320.8 108.1 332.7C74 344.7 37 347.3 0 349.9L0 0Z" fill="#793a72"></path><path d="M291.5 0C264.2 24 236.8 47.9 224.1 72.8C211.4 97.7 213.3 123.6 206.8 150.3C200.3 176.9 185.4 204.4 164.9 227C144.5 249.6 118.5 267.3 90.1 277.3C61.7 287.2 30.8 289.4 0 291.5L0 0Z" fill="#b24272"></path><path d="M233.2 0C211.3 19.2 189.5 38.3 179.3 58.2C169.1 78.2 170.6 98.9 165.4 120.2C160.2 141.5 148.3 163.5 132 181.6C115.6 199.7 94.8 213.9 72.1 221.8C49.3 229.8 24.7 231.5 0 233.2L0 0Z" fill="#e25463"></path><path d="M174.9 0C158.5 14.4 142.1 28.7 134.5 43.7C126.8 58.6 128 74.1 124.1 90.2C120.2 106.2 111.2 122.7 99 136.2C86.7 149.8 71.1 160.4 54.1 166.4C37 172.3 18.5 173.6 0 174.9L0 0Z" fill="#ff7848"></path><path d="M116.6 0C105.7 9.6 94.7 19.2 89.6 29.1C84.5 39.1 85.3 49.4 82.7 60.1C80.1 70.8 74.2 81.8 66 90.8C57.8 99.9 47.4 106.9 36 110.9C24.7 114.9 12.3 115.8 0 116.6L0 0Z" fill="#ffa722"></path><path d="M58.3 0C52.8 4.8 47.4 9.6 44.8 14.6C42.3 19.5 42.7 24.7 41.4 30.1C40.1 35.4 37.1 40.9 33 45.4C28.9 49.9 23.7 53.5 18 55.5C12.3 57.4 6.2 57.9 0 58.3L0 0Z" fill="#ffc100"></path></g></svg>